<svg width="50" height="52" viewBox="0 0 50 52" fill="none" xmlns="http://www.w3.org/2000/svg">
<path d="M50 14.4675H24.9621C28.8704 9.54517 37.5828 5.64835 41.4505 4.31523C46.0916 6.03803 49.084 11.8012 50 14.4675Z" fill="#FEFEFE"/>
<path d="M15.1912 23.0815C16.6568 12.2524 29.0333 3.80249 35.0383 0.931149C23.069 -1.77612 13.9698 2.05918 10.9164 4.31523C10.6721 13.1754 13.6645 20.5178 15.1912 23.0815Z" fill="#FEFEFE"/>
<path d="M19.1606 35.6949C9.38968 29.0498 6.53984 14.6726 6.33628 8.3146C-0.74763 16.9286 -0.483001 27.9012 0.534802 32.3108C7.13016 35.7564 15.7001 36.0025 19.1606 35.6949Z" fill="#FEFEFE"/>
<path d="M3.58821 38.156C14.0919 42.8322 25.8781 40.1044 30.4582 38.156C28.2597 46.0317 23.8425 50.6669 21.9087 52C11.4049 50.5233 5.31847 42.1554 3.58821 38.156Z" fill="#FEFEFE"/>
<path d="M50 38.156C45.1146 48.9851 33.1045 51.8975 27.7101 52C32.3513 48.0622 34.5294 41.1299 35.0383 38.156H50Z" fill="#FEFEFE"/>
</svg>
